<svg xmlns="http://www.w3.org/2000/svg" xmlns:xlink="http://www.w3.org/1999/xlink" width="572" height="324" version="1.1" viewBox="0 0 572 324"><title>Artboard</title><desc>Created with Sketch.</desc><g fill="none" fill-rule="evenodd" stroke="none" stroke-width="1"><g><g transform="translate(222.000000, 89.000000)"><rect width="124" height="47" x="0" y="0" fill="#E67891" rx="4"/><text fill="#FFF" font-family="Avenir-Book, Avenir" font-size="15" font-weight="normal"><tspan x="22.137" y="15">type: image</tspan></text></g></g><g><g transform="translate(105.000000, 149.500000) rotate(13.000000) translate(-105.000000, -149.500000) translate(43.000000, 126.000000)"><rect width="124" height="47" x="0" y="0" fill="#E67891" rx="4"/><text fill="#FFF" font-family="Avenir-Book, Avenir" font-size="15" font-weight="normal"><tspan x="11.863" y="15">type: new-type</tspan></text></g></g><g><g transform="translate(222.000000, 156.000000)"><rect width="124" height="47" x="0" y="0" fill="#E67891" rx="4"/><text fill="#FFF" font-family="Avenir-Book, Avenir" font-size="15" font-weight="normal"><tspan x="30.207" y="15">type: text</tspan></text></g></g><g><g transform="translate(222.000000, 221.000000)"><rect width="124" height="47" x="0" y="0" fill="#E67891" rx="4"/><text fill="#FFF" font-family="Avenir-Book, Avenir" font-size="15" font-weight="normal"><tspan x="19.648" y="15">type: default</tspan></text></g></g><text fill="#6E6E6E" font-family="Helvetica-Bold, Helvetica" font-size="15" font-weight="bold"><tspan x="201" y="41">Component Type Stack</tspan></text><path stroke="#999" d="M94,113 C94.4283817,89 126.095048,77 189,77"/><polygon fill="#999" points="203 77.5 189 83 189 72"/><polygon fill="#999" points="382 283.5 368 289 368 278" transform="translate(375.000000, 283.500000) rotate(-270.000000) translate(-375.000000, -283.500000)"/><text fill="#6E6E6E" font-family="Helvetica" font-size="12" font-weight="normal"><tspan x="33.805" y="214">New Component Type </tspan> <tspan x="62.141" y="228">goes on top</tspan></text><text fill="#6E6E6E" font-family="Helvetica" font-size="12" font-weight="normal"><tspan x="396" y="231">The </tspan> <tspan x="420.012" y="231" font-family="Helvetica-Bold, Helvetica" font-weight="bold">default </tspan> <tspan x="462.68" y="231">is the last </tspan> <tspan x="396" y="245">available type</tspan></text><text fill="#6E6E6E" font-family="Helvetica" font-size="12" font-weight="normal"><tspan x="396" y="141">Each parsed element goes </tspan> <tspan x="396" y="155">through the stack from TOP </tspan> <tspan x="396" y="169">to BOTTOM</tspan></text><path stroke="#999" stroke-linecap="square" d="M375.5,78.5 L375.5,280.621251"/><text font-family="Helvetica" font-size="12" font-weight="normal"><tspan x="396" y="86" fill="#E67891">&lt;span&gt;</tspan> <tspan x="436.037" y="86" fill="#6E6E6E">New element</tspan> <tspan x="506.068" y="86" fill="#E67891">&lt;/span&gt;</tspan></text></g></svg>